<svg width="81" height="12" xmlns="http://www.w3.org/2000/svg" xmlns:xlink="http://www.w3.org/1999/xlink"><defs><path id="a" d="M0 0h7.714v2.571H0z"/><path id="c" d="M0 0h2.571v7.714H0z"/><path id="e" d="M0 0h2.571v2.571H0z"/><path id="g" d="M0 0h2.571v2.571H0z"/><path id="i" d="M0 0h6v9.429H0z"/><path id="k" d="M0 0h6v9.429H0z"/><path id="m" d="M0 0h7.714v2.571H0z"/></defs><g fill="none" fill-rule="evenodd"><path d="M1.206 0H1.19C.837 0 .53.147.29.44.096.65 0 .91 0 1.203v6.213c.016.228.096.456.225.65.241.327.563.505.98.505.29 0 .532-.097.757-.26.29-.227.45-.536.45-.91v-.489h4.954c.288 0 .546-.097.77-.277.29-.26.435-.569.435-.942 0-.31-.096-.57-.29-.797a1.122 1.122 0 0 0-.915-.424H2.413V1.22c0-.227.047-.454.128-.666.097-.228.24-.406.418-.553H1.206z" fill="#000" fill-rule="nonzero"/><g transform="translate(2.571)"><mask id="b" fill="#fff"><use xlink:href="#a"/></mask><g mask="url(#b)" fill="#E31C79" fill-rule="nonzero"><path d="M1.432 0C1.028 0 .69.179.455.521c-.135.211-.22.44-.22.7 0 .277.102.537.27.765.254.293.573.456.96.456h5.018c.37-.017.657-.147.893-.407.235-.228.336-.505.336-.815a1.1 1.1 0 0 0-.42-.895A1.136 1.136 0 0 0 6.465 0H1.432z"/></g></g><path d="M1.252 9.204c-.5 0-.918-.223-1.252-.633v2.032c0 .372.116.708.35.988.268.26.568.409.902.409h7.782c.35 0 .651-.148.884-.41.251-.279.368-.615.368-.987 0-.373-.117-.709-.35-.97-.235-.28-.519-.429-.853-.429H1.252zM12.395 0c-.334 0-.617.12-.868.36-.25.24-.384.549-.384.925V4.8c.134-.172.3-.291.484-.377.234-.12.484-.171.751-.171h.034c.267 0 .501.05.735.171.2.086.367.205.5.377.034.035.068.069.084.102l5.46 6.6c.25.327.585.498.986.498.366 0 .684-.154.934-.428.218-.24.318-.532.318-.857V7.217a1.905 1.905 0 0 1-.501.36 1.845 1.845 0 0 1-.751.171c-.301 0-.602-.085-.869-.222a1.982 1.982 0 0 1-.484-.428L13.33.428A1.192 1.192 0 0 0 12.394 0z" fill="#000" fill-rule="nonzero"/><g transform="translate(18.857)"><mask id="d" fill="#fff"><use xlink:href="#c"/></mask><g mask="url(#d)" fill="#007DBA" fill-rule="nonzero"><path d="M1.347 0A1.13 1.13 0 0 0 .5.366a1.282 1.282 0 0 0-.374.942v5.058c0 .244.08.453.228.662.244.314.57.488.993.488.292 0 .553-.087.781-.261.293-.245.44-.54.44-.89V1.309c0-.419-.147-.75-.44-.994A1.122 1.122 0 0 0 1.347 0z"/></g></g><path d="M12.411 4.286c-.343 0-.633.095-.874.302-.24.207-.377.462-.394.764V9.95c0 .254.086.493.257.716.274.318.618.477 1.028.477.378 0 .687-.127.927-.366a1.1 1.1 0 0 0 .36-.827V5.352c0-.43-.224-.748-.67-.939-.17-.096-.377-.127-.599-.127h-.035zM28.778 0a5.175 5.175 0 0 0-2.825.806c-.872.531-1.535 1.252-2.05 2.177a6.22 6.22 0 0 0-.76 3.018A6.18 6.18 0 0 0 23.886 9c.516.925 1.179 1.646 2.05 2.195a5.384 5.384 0 0 0 2.842.805c.872 0 1.68-.188 2.439-.583a5.75 5.75 0 0 0 1.937-1.628.273.273 0 0 1 .064-.086 1.272 1.272 0 0 0 .146-1.097c-.065-.275-.226-.48-.453-.651a1.105 1.105 0 0 0-.71-.258c-.08 0-.161 0-.258.034a1.13 1.13 0 0 0-.646.395c0 .017-.033.052-.08.12-.647.789-1.454 1.182-2.439 1.182-.871 0-1.615-.325-2.26-.993A3.478 3.478 0 0 1 25.565 6c0-.961.307-1.75.937-2.418.645-.685 1.405-1.011 2.276-1.011.55 0 1.066.136 1.534.411-.016-.12-.032-.24-.032-.343 0-.463.144-.84.435-1.165.307-.343.663-.515 1.082-.532A5.157 5.157 0 0 0 28.778 0z" fill="#000" fill-rule="nonzero"/><g transform="translate(30 .857)"><mask id="f" fill="#fff"><use xlink:href="#e"/></mask><g mask="url(#f)" fill="#4EC3E0" fill-rule="nonzero"><path d="M1.345.22C.986.22.678.337.433.588a1.025 1.025 0 0 0-.326.754c.034.193.066.355.131.474s.179.252.326.4c.228.148.488.237.781.237.358 0 .667-.12.895-.356a1.01 1.01 0 0 0 .325-.755.952.952 0 0 0-.26-.68 1.237 1.237 0 0 0-.96-.444z"/></g></g><path d="M33.092 4.286H29.48c-.382 0-.7.163-.939.529a1.46 1.46 0 0 0-.254.838c0 .292.08.565.223.803.238.364.557.565.97.565h2.562a.896.896 0 0 1 .383.019c.222.054.413.163.589.31.159.126.302.29.398.492.143.218.223.456.254.73a6.87 6.87 0 0 0 .62-2.883v-.072c0-.366-.11-.657-.318-.913a1.067 1.067 0 0 0-.875-.418zM36.384 0h-.017c-.364 0-.678.138-.926.445a1.26 1.26 0 0 0-.298.823v1.835c.017.29.116.549.314.788.248.275.563.43.927.43.33 0 .595-.121.827-.326.28-.257.413-.566.413-.926v-.497h3.474c.248 0 .463.085.629.257.248.205.363.48.363.805 0 .36-.132.652-.413.875-.166.12-.347.188-.563.205h-4.151l-.579-.017c-.248 0-.48-.069-.711-.171a1.78 1.78 0 0 1-.53-.412v6.6c0 .343.116.652.348.91.264.24.562.376.893.376.363 0 .678-.136.91-.412.231-.24.33-.53.33-.873v-3.43h2.151c.033.035.049.07.065.104l.018.016 2.596 3.275c.017-.48.198-.891.53-1.2a1.505 1.505 0 0 1 1.108-.445c.099 0 .198 0 .28.017l-1.72-2.16a3.7 3.7 0 0 0 .944-.738c.661-.72.975-1.56.975-2.52 0-.926-.298-1.73-.893-2.416C43.033.463 42.223.052 41.247 0h-4.863z" fill="#000" fill-rule="nonzero"/><g transform="translate(42.857 9.429)"><mask id="h" fill="#fff"><use xlink:href="#g"/></mask><g mask="url(#h)" fill="#E31C79" fill-rule="nonzero"><path d="M1.28.19A1.12 1.12 0 0 0 .496.5a1.091 1.091 0 0 0-.325.8c0 .176.044.34.103.488.074.132.178.251.31.37.178.133.37.222.578.25h.118c.267 0 .503-.088.696-.25.28-.238.414-.518.414-.859 0-.236-.059-.443-.192-.622a.873.873 0 0 0-.207-.236A1.044 1.044 0 0 0 1.28.19z"/></g></g><path d="M52.794 0c-.249 0-.481.069-.697.223a1.23 1.23 0 0 0-.43.497L50.57 2.76a1.57 1.57 0 0 1 .564-.103h.166c.216.017.415.086.614.189.016 0 .032.017.032.034.133.068.233.154.332.257.117.103.216.24.282.377l4.228 7.8c.116.206.265.36.464.498.199.12.415.188.647.188.331 0 .63-.12.861-.36.266-.274.382-.583.382-.925 0-.224-.05-.429-.166-.618L53.905.702a1.176 1.176 0 0 0-.366-.445.864.864 0 0 0-.347-.188.969.969 0 0 0-.398-.069z" fill="#000" fill-rule="nonzero"/><g transform="translate(47.143 2.571)"><mask id="j" fill="#fff"><use xlink:href="#i"/></mask><g mask="url(#j)" fill="#007DBA" fill-rule="nonzero"><path d="M4.699.056c-.447 0-.777.212-1.008.633l-3.484 6.6a1.37 1.37 0 0 0-.149.632c0 .35.116.649.348.912.247.264.545.404.891.404.232 0 .446-.07.644-.193.198-.14.363-.299.463-.51l3.467-6.6a1.28 1.28 0 0 0 .116-.543c0-.14-.017-.263-.05-.387a1.246 1.246 0 0 0-.594-.772A1.05 1.05 0 0 0 4.73.056H4.7z"/></g></g><path d="M62.922 12c.265 0 .497-.086.695-.223a1.31 1.31 0 0 0 .415-.496l1.11-2.041a1.564 1.564 0 0 1-.563.103h-.166a1.961 1.961 0 0 1-.613-.189c0-.017-.017-.034-.05-.034a3.887 3.887 0 0 1-.315-.24c-.099-.12-.2-.257-.282-.394l-4.227-7.8a1.206 1.206 0 0 0-.464-.498A1.107 1.107 0 0 0 57.816 0c-.333 0-.63.12-.88.378a1.274 1.274 0 0 0-.365.907c0 .207.05.412.15.618l5.09 9.395c.099.17.216.307.348.445.116.069.232.137.347.188.133.035.283.069.416.069z" fill="#000" fill-rule="nonzero"/><g transform="translate(63.429)"><mask id="l" fill="#fff"><use xlink:href="#k"/></mask><g mask="url(#l)" fill="#4EC3E0" fill-rule="nonzero"><path d="M1.305 9.18c.443-.017.76-.228.966-.631l3.323-6.6c.11-.211.158-.422.158-.633 0-.35-.111-.666-.332-.912A1.064 1.064 0 0 0 4.565 0c-.221 0-.427.053-.617.193-.19.123-.333.299-.443.509l-3.323 6.6a1.594 1.594 0 0 0-.112.562c0 .105.017.228.048.369.095.333.285.597.554.772.19.105.395.176.601.176h.032z"/></g></g><path d="M71.491 0h-.015c-.354 0-.66.147-.9.44-.194.21-.29.47-.29.763v6.213c.016.228.096.456.225.65.241.327.563.505.98.505.29 0 .531-.097.757-.26.29-.227.45-.536.45-.91v-.489h4.953c.29 0 .547-.097.772-.277.29-.26.434-.569.434-.942 0-.31-.096-.57-.29-.797a1.122 1.122 0 0 0-.916-.424h-4.953V1.22c0-.227.048-.454.128-.666.098-.228.241-.406.42-.553H71.49z" fill="#000" fill-rule="nonzero"/><g transform="translate(72.857)"><mask id="n" fill="#fff"><use xlink:href="#m"/></mask><g mask="url(#n)" fill="#E31C79" fill-rule="nonzero"><path d="M1.434 0C1.03 0 .694.179.457.521c-.135.211-.219.44-.219.7 0 .277.1.537.27.765.253.293.572.456.96.456h5.017c.371-.017.657-.147.893-.407.235-.228.336-.505.336-.815a1.1 1.1 0 0 0-.42-.895A1.136 1.136 0 0 0 6.467 0H1.434z"/></g></g><path d="M71.538 9.204c-.501 0-.918-.223-1.252-.633v2.032c0 .372.116.708.35.988.268.26.568.409.902.409h7.781c.35 0 .652-.148.885-.41.251-.279.367-.615.367-.987 0-.373-.116-.709-.35-.97-.234-.28-.518-.429-.852-.429h-7.831z" fill="#000" fill-rule="nonzero"/></g></svg>